# xmcd
#
# Track frame offsets: 
#        150
#        15257
#        32240
#        46730
#        61710
#        78357
#        90290
#        103040
#        118055
#        133762
#        147055
#        162217
#
# Disc length: 2326 seconds
#
# Revision: 2
# Processed by: cddbd v1.5.1PL2 Copyright (c) Steve Scherf et al.
# Submitted via: ExactAudioCopy v0.95b3
#
DISCID=8909140c
DTITLE=Sammy Kershaw - Politics, Relgion And Her
DYEAR=1996
DGENRE=Country
TTITLE0=Vidalia
TTITLE1=Meant To Be
TTITLE2=Fit To Be Tied Down
TTITLE3=Politics, Relgion And Her
TTITLE4=Chevy Van
TTITLE5=Same Place
TTITLE6=Little Bitty Crack In Her Heart
TTITLE7=These Flowers
TTITLE8=I Saw You Today
TTITLE9=Memphis, Tennesse
TTITLE10=For Years
TTITLE11=Her She Comes
EXTD=
EXTT0=
EXTT1=
EXTT2=
EXTT3=
EXTT4=
EXTT5=
EXTT6=
EXTT7=
EXTT8=
EXTT9=
EXTT10=
EXTT11=
PLAYORDER=
